# xmcd
#
# Track frame offsets:
# 150
# 32987
# 47005
# 65030
# 83867
# 101795
# 120127
# 137685
# 157280
# 176757
# 196012
# 216760
# 235580
#
# Disc length: 3757 seconds
#
#
# Revision: 5
# Processed by: cddbd v1.5.2PL0 Copyright (c) Steve Scherf et al.
# Submitted via: FreeRIP 2.945 
#
DISCID=b30eab0d
DTITLE=Albert King - The Best Of Albert King
DYEAR=1986
DGENRE=Blues
TTITLE0=I'll Play the Blues For You (Parts 1 and 2)
TTITLE1=Killing Floor
TTITLE2=Honky Tonk Woman
TTITLE3=Sky Is Crying
TTITLE4=Breaking Up Somebody's Home
TTITLE5=Hound Dog
TTITLE6=That's What The Blues Is All About
TTITLE7=Angel Of Mercy
TTITLE8=Everybody Wants To Go To Heaven
TTITLE9=Can't You See What You're Doing To Me
TTITLE10=Answer To The Laundromat Blues
TTITLE11=I Wanna Get Funky
TTITLE12=Blues Power
EXTD=1968-1973
EXTT0=
EXTT1=
EXTT2=
EXTT3=
EXTT4=
EXTT5=
EXTT6=
EXTT7=
EXTT8=
EXTT9=
EXTT10=
EXTT11=
EXTT12=
PLAYORDER=
